# ProBuilder 4.0.5
# https://unity3d.com/unity/features/worldbuilding/probuilder
# 01/02/2020 12:55:27

mtllib ./Bullet.mtl
o Bullet

g Cylinder
v -0.05 0.0260553 0
v -0.05 0.2 0
v -0.02557935 0.02604523 0.04286675
v -0.0294488 0.2 0.0399646
v 0.025 0.0260553 0.04330127
v 0.025 0.2 0.04330127
v 0.05 0.0260553 -4.371139E-09
v 0.05 0.2 -4.371139E-09
v 0.02499999 0.0260553 -0.04330127
v 0.02499999 0.2 -0.04330127
v -0.025 0.0260553 -0.04330127
v -0.025 0.2 -0.04330127
v -0.01197235 0 0.02073672
v 0 0.389824 -6.862442E-10
v 0.01197236 0 0.02073672
v 0.0239447 0 -1.862645E-09
v 0 0 0
v 0.01197235 0 -0.02073672
v -0.01197235 0 -0.02073672
v -0.0239447 0 0

vt 0 0.0260553
vt 0 0.2
vt 0.04933398 0.02604678
vt 0.04488596 0.2
vt 0.02442065 0.02532655
vt 0.0205512 0.1993056
vt 0.075 0.02533299
vt 0.075 0.1992499
vt 0.05 0.0260553
vt 0.05 0.2
vt -0.05000001 0.0260553
vt -0.05000001 0.2
vt -0.075 0.0260553
vt -0.075 0.2
vt -0.025 0.0260553
vt -0.025 0.2
vt 0.03802765 0.02073672
vt 0 0.1947289
vt 0.02286561 0.3896912
vt 0.04493909 0.1947289
vt 0.06197236 0.02073672
vt 0.0229572 0.1870567
vt 0.04990638 0.381405
vt 0.07750814 0.1870567
vt -1.979898E-09 0.1757307
vt 0.025 0.3704309
vt 0.05 0.1757307
vt 0.0739447 -1.862645E-09
vt 0.05 0
vt 0.06197235 -0.02073672
vt -0.05 0.1757307
vt -0.025 0.3704309
vt 0.03802765 -0.02073672
vt -0.075 0.1853609
vt -0.05 0.3800611
vt -0.025 0.1853609
vt 0.0260553 0
vt -0.05 0.1949911
vt -0.025 0.3896912
vt 0.07145688 -0.02700817
vt 0.08913455 0.01976255
vt 0.04382107 -0.002635666
vt 0.0522868 0.01976256
vt -0.025 0.04804329
vt -0.075 0.04804329
vt -0.03802765 0.01357537
vt -0.06197235 0.01357537
vt -0.01842388 -0.006963571
vt -0.0007462047 -0.05373429
vt 0.01842388 -0.006963571
vt 0.02688961 -0.02936179
vt -0.001036929 0.05307576
vt -0.01836606 0.006884545
vt 0.02697373 0.02922947
vt 0.01848152 0.006841535
vt 0.0753619 0.04759188
vt 0.02478068 0.04757859
vt 0.06214475 0.01319619
vt 0.03820089 0.01332779
vt 0.08913456 -0.01976256
vt 0.07145689 0.02700816
vt 0.0522868 -0.01976255
vt 0.04382108 0.002635666

vn -0.9999959 0 -0.00288308
vn -0.9999005 -0.003481218 -0.01367217
vn -0.5153742 0.006046175 0.8569438
vn -0.5358054 -0.00226507 0.8443384
vn 0.4849153 0.004810185 0.8745478
vn 0.4732679 0 0.8809186
vn 1 0 -1.032383E-07
vn 0.4999999 0 -0.8660254
vn -0.5 0 -0.8660254
vn 0 -1 0
vn -0.966741 0.2546414 -0.02386504
vn -0.06086393 0.9976437 -0.03166435
vn -0.5283194 0.2526205 0.8105933
vn 0.4571955 0.2545983 0.8521455
vn 0.9670165 0.254714 -6.826507E-08
vn 0.4835082 0.254714 -0.8374608
vn -0.4835082 0.254714 -0.8374608
vn 0.6546537 -0.6546537 -0.3779646
vn 0 -0.6546537 -0.755929
vn -0.6546537 -0.6546537 -0.3779645
vn -0.6541557 -0.6582681 0.3725097
vn -0.6544046 -0.6564609 0.3752371
vn -0.6546537 -0.6546537 0.3779645
vn -0.006377535 -0.6528163 0.7574894
vn -0.003188767 -0.6501609 0.7597751
vn 0 -0.6475055 0.7620608
vn 0.6546537 -0.6546537 0.3779644

g Cylinder
usemtl New_Material_1
f 4/20/13 14/19/12 2/18/11
f 6/24/14 14/23/12 4/22/13
f 8/27/15 14/26/12 6/25/14
f 10/25/16 14/32/12 8/31/15
f 12/36/17 14/35/12 10/34/16
f 2/18/11 14/39/12 12/38/17
f 16/28/10 17/29/10 18/30/10
f 18/30/10 17/29/10 19/33/10
f 19/33/10 17/29/10 20/37/10
f 20/37/10 17/29/10 13/17/10
f 13/17/10 17/29/10 15/21/10
f 15/21/10 17/29/10 16/28/10
f 4/4/4 2/2/2 1/1/1
f 1/1/1 3/3/3 4/4/4
f 6/8/6 4/6/4 3/5/3
f 3/5/3 5/7/5 6/8/6
f 8/10/7 6/2/6 5/1/5
f 5/1/5 7/9/7 8/10/7
f 10/2/8 8/12/7 7/11/7
f 7/11/7 9/1/8 10/2/8
f 12/16/9 10/14/8 9/13/8
f 9/13/8 11/15/9 12/16/9
f 2/2/2 12/12/9 11/11/9
f 11/11/9 1/1/1 2/2/2
f 18/42/18 9/40/18 7/41/18
f 7/41/18 16/43/18 18/42/18
f 19/46/19 11/44/19 9/45/19
f 9/45/19 18/47/19 19/46/19
f 20/50/20 1/48/20 11/49/20
f 11/49/20 19/51/20 20/50/20
f 13/54/22 3/52/21 1/53/22
f 1/53/22 20/55/23 13/54/22
f 15/58/25 5/56/24 3/57/25
f 3/57/25 13/59/26 15/58/25
f 16/62/27 7/60/27 5/61/27
f 5/61/27 15/63/27 16/62/27

