# ProBuilder 4.0.5
# https://unity3d.com/unity/features/worldbuilding/probuilder
# 01/02/2020 13:00:09

mtllib ./Gun.mtl
o Gun

g Pipe-Merged
v 0.07100001 0 0.08673608
v -0.1263424 0 0.08673608
v 0.07100001 0.1914794 0.08673608
v -0.1263424 0.1914794 0.08673608
v -0.1263424 0 -0.138
v -0.1263424 0.1914794 -0.138
v 0.07100001 0 -0.138
v 0.07100001 0.1914794 -0.138
v 0.203 0.129 0.381
v -0.2654879 0.129 0.381
v 0.203 0.6034501 0.381
v -0.2654879 0.6034501 0.381
v -0.2654879 0.129 -0.3502063
v -0.2654879 0.6034501 -0.3502063
v 0.203 0.129 -0.3502063
v 0.203 0.6034501 -0.3502063
v -0.075 0.2833974 0.262
v -0.125 0.37 0.262
v -0.075 0.2833974 0.7521443
v -0.125 0.37 0.7521443
v -0.075 0.37 0.262
v -0.05 0.3266987 0.262
v -0.075 0.37 0.7521443
v -0.05 0.3266987 0.7521442
v 0.02500001 0.2833975 0.262
v 0.02500001 0.2833974 0.7521443
v 0 0.3266987 0.262
v 0 0.3266988 0.7521442
v 0.075 0.37 0.262
v 0.075 0.37 0.7521443
v 0.02500001 0.37 0.262
v 0.02500001 0.37 0.7521443
v 0.02499999 0.4566026 0.262
v 0.02499999 0.4566026 0.7521443
v 0 0.4133013 0.262
v 0 0.4133013 0.7521442
v -0.07499999 0.4566026 0.262
v -0.07499999 0.4566026 0.7521443
v -0.05 0.4133013 0.262
v -0.05 0.4133013 0.7521442

vt 0 0
vt -0.1973424 0
vt 0 0.1914794
vt -0.1973424 0.1914794
vt -0.7752639 0
vt -1 0
vt -0.7752639 0.1914794
vt -1 0.1914794
vt 0.1973424 0
vt 0.1973424 0.1914794
vt 1 0
vt 0.7752639 0
vt 1 0.1914794
vt 0.7752639 0.1914794
vt 0 -0.7752639
vt 0.1973424 -0.7752639
vt 0 -1
vt 0.1973424 -1
vt -0.1973424 -1
vt -0.1973424 -0.7752639
vt -0.4684879 -1.490116E-08
vt 0 0.4744501
vt -0.4684879 0.4744501
vt -0.7312063 0
vt -0.7312063 0.4744501
vt 0.4684879 0
vt 0.4684879 0.4744501
vt 0.7312063 0
vt 0.7312063 0.4744501
vt 0 -0.7312063
vt 0.4684879 -0.7312063
vt -0.4684879 -0.7312062
vt 0.09999998 0
vt 0.1 0.4901442
vt -2.980232E-08 0.4901442
vt -0.02499998 2.980232E-08
vt -0.07499997 2.980232E-08
vt -0.02499996 0.4901442
vt -0.07499997 0.4901442
vt 0.15 1.490116E-08
vt 0.04999999 1.490116E-08
vt 0.15 0.4901442
vt 0.04999999 0.4901442
vt -0.075 2.632855E-09
vt -0.125 2.632855E-09
vt -0.075 0.4901442
vt -0.125 0.4901442
vt 0.1 0
vt -0.02500001 -1.490116E-08
vt -0.02500004 0.4901442
vt -0.1 0
vt -0.1 0.4901441
vt 0.075 0
vt 0.02499995 0
vt 0.075 0.4901442
vt 0.02499996 0.4901442
vt -0.05000001 1.490116E-08
vt -0.15 1.490116E-08
vt -0.05000001 0.4901442
vt -0.15 0.4901442
vt 0.125 0
vt 0.125 0.4901442
vt 0.02500001 0
vt 0.02500001 0.4901442
vt 0.05000001 0.08660255
vt 0.075 0.04330127
vt -0.05 0.08660251
vt -0.075 0.04330123
vt 0.05 0.08660255
vt 0.15 0.08660251
vt 0.125 0.04330128
vt 0.2 -7.450581E-09
vt -0.15 0.08660252
vt -0.125 0.04330118
vt 0.15 -0.08660255
vt 0.125 -0.04330127
vt -0.2 -7.031603E-08
vt -0.15 -7.468717E-08
vt 0.05000001 -0.08660255
vt 0.075 -0.04330127
vt -0.15 -0.08660263
vt -0.125 -0.04330136
vt 0.05 0
vt -0.05000003 -0.08660264
vt -0.05 -8.342945E-08
vt -0.075 -0.04330136

vn 0 0 1
vn -1 0 0
vn 0 0 -1
vn 1 0 0
vn 0 1 0
vn 0 -1 0
vn -0.8660254 -0.4999999 -3.040158E-08
vn 0.8660254 0.5 0
vn 0.8660255 0.4999999 1.520078E-08
vn 0.8660254 -0.5 0
vn 0.8660254 -0.4999999 -3.040157E-08
vn -0.8660254 0.5 -3.040158E-08
vn -0.8660253 0.5000001 -1.520079E-08
vn -0.8660254 -0.5 0

g Pipe-Merged
usemtl Gun_Metal
f 23/85/1 38/84/1 20/1/1
f 23/85/1 40/86/1 38/84/1
f 40/86/1 34/81/1 38/84/1
f 40/86/1 36/82/1 34/81/1
f 36/82/1 30/77/1 34/81/1
f 36/82/1 32/78/1 30/77/1
f 32/78/1 26/73/1 30/77/1
f 32/78/1 28/74/1 26/73/1
f 24/68/1 20/1/1 19/67/1
f 24/68/1 23/85/1 20/1/1
f 28/74/1 19/67/1 26/73/1
f 28/74/1 24/68/1 19/67/1
f 4/4/1 2/2/1 1/1/1
f 1/1/1 3/3/1 4/4/1
f 6/8/2 5/6/2 2/5/2
f 2/5/2 4/7/2 6/8/2
f 8/3/3 7/1/3 5/9/3
f 5/9/3 6/10/3 8/3/3
f 3/14/4 1/12/4 7/11/4
f 7/11/4 8/13/4 3/14/4
f 6/18/5 4/16/5 3/15/5
f 3/15/5 8/17/5 6/18/5
f 2/20/6 5/19/6 7/17/6
f 7/17/6 1/15/6 2/20/6
f 12/23/1 10/21/1 9/1/1
f 9/1/1 11/22/1 12/23/1
f 14/25/2 13/24/2 10/1/2
f 10/1/2 12/22/2 14/25/2
f 16/22/3 15/1/3 13/26/3
f 13/26/3 14/27/3 16/22/3
f 11/22/4 9/1/4 15/28/4
f 15/28/4 16/29/4 11/22/4
f 14/31/5 12/26/5 11/1/5
f 11/1/5 16/30/5 14/31/5
f 10/21/6 13/32/6 15/30/6
f 15/30/6 9/1/6 10/21/6
f 20/35/7 18/1/7 17/33/7
f 17/33/7 19/34/7 20/35/7
f 24/39/9 22/37/9 21/36/8
f 21/36/8 23/38/9 24/39/9
f 19/43/6 17/41/6 25/40/6
f 25/40/6 26/42/6 19/43/6
f 28/47/5 27/45/5 22/44/5
f 22/44/5 24/46/5 28/47/5
f 26/35/11 25/1/11 29/48/10
f 29/48/10 30/34/11 26/35/11
f 32/46/13 31/44/13 27/49/12
f 27/49/12 28/50/13 32/46/13
f 30/52/8 29/51/8 33/1/9
f 33/1/9 34/35/8 30/52/8
f 36/56/7 35/54/14 31/53/14
f 31/53/14 32/55/14 36/56/7
f 34/60/5 33/58/5 37/57/5
f 37/57/5 38/59/5 34/60/5
f 40/55/6 39/53/6 35/61/6
f 35/61/6 36/62/6 40/55/6
f 38/52/12 37/51/13 18/1/13
f 18/1/13 20/35/13 38/52/12
f 23/64/10 21/63/10 39/53/11
f 39/53/11 40/55/10 23/64/10
f 22/66/3 17/65/3 18/1/3
f 18/1/3 21/41/3 22/66/3
f 27/71/3 25/70/3 17/69/3
f 17/69/3 22/66/3 27/71/3
f 31/40/3 29/72/3 25/70/3
f 25/70/3 27/71/3 31/40/3
f 35/76/3 33/75/3 29/72/3
f 29/72/3 31/40/3 35/76/3
f 39/80/3 37/79/3 33/75/3
f 33/75/3 35/76/3 39/80/3
f 21/83/3 18/1/3 37/79/3
f 37/79/3 39/80/3 21/83/3

