# ProBuilder 4.0.5
# https://unity3d.com/unity/features/worldbuilding/probuilder
# 01/02/2020 11:41:28

mtllib ./Sawblade.mtl
o Sawblade

g Cylinder-Merged
v -0.01599876 0.135754 1.192
v -0.01599876 0.1564952 1.192
v 0.01661117 0.1564952 1.045575
v 0.01661117 0.135754 1.045575
v 0.4432222 0.1564952 1.100655
v 0.4432222 0.135754 1.100655
v 0.4046765 0.1564952 0.9585677
v 0.4046765 0.135754 0.9585677
v 0.8325292 0.1564952 0.840528
v 0.8325292 0.135754 0.840528
v 0.7374173 0.1564952 0.7057136
v 0.7374173 0.135754 0.7057136
v 1.092657 0.1564952 0.45122
v 1.092657 0.135754 0.45122
v 0.9392644 0.1564952 0.3503823
v 0.9392644 0.135754 0.3503823
v 1.184002 0.1564952 -0.008000253
v 1.184002 0.135754 -0.008000253
v 1.030632 0.1564952 -0.03730212
v 1.030632 0.135754 -0.03730212
v 1.092657 0.1564952 -0.4672203
v 1.092657 0.135754 -0.4672203
v 0.9455242 0.1564952 -0.4338864
v 0.9455242 0.135754 -0.4338864
v 0.832529 0.1564952 -0.8565285
v 0.832529 0.135754 -0.8565285
v 0.6894931 0.1564952 -0.7704185
v 0.6894931 0.135754 -0.7704185
v 0.4432219 0.1564952 -1.116656
v 0.4432219 0.135754 -1.116656
v 0.3431948 0.1564952 -0.9500908
v 0.3431948 0.135754 -0.9500908
v -0.01599905 0.1564952 -1.208
v -0.01599905 0.135754 -1.208
v -0.05858631 0.1564952 -1.035179
v -0.05858631 0.135754 -1.035179
v -0.47522 0.1564952 -1.116656
v -0.47522 0.135754 -1.116656
v -0.4430926 0.1564952 -0.9567004
v -0.4430926 0.135754 -0.9567004
v -0.864527 0.1564952 -0.8565283
v -0.864527 0.135754 -0.8565283
v -0.7569659 0.1564952 -0.6968235
v -0.7569659 0.135754 -0.6968235
v -1.124655 0.1564952 -0.4672203
v -1.124655 0.135754 -0.4672203
v -0.9465888 0.1564952 -0.3431186
v -0.9465888 0.135754 -0.3431186
v -1.216 0.1564952 -0.007999967
v -1.216 0.135754 -0.007999967
v -1.019377 0.1564952 0.01380399
v -1.019377 0.135754 0.01380399
v -1.124655 0.1564952 0.4512205
v -1.124655 0.135754 0.4512205
v -0.9866143 0.1564952 0.4259313
v -0.9866143 0.135754 0.4259313
v -0.8645268 0.1564952 0.8405281
v -0.8645268 0.135754 0.8405281
v -0.7315465 0.1564952 0.743435
v -0.7315465 0.135754 0.743435
v -0.4752197 0.1564952 1.100656
v -0.4752197 0.135754 1.100656
v -0.3942184 0.1564952 0.9754466
v -0.3942184 0.135754 0.9754466
v -0.0159989 0.08310932 -0.00800011
v -0.0159989 0.2442359 -0.00800011
v -0.01399997 0 0.28
v -0.01399997 0.3 0.28
v 0.1981315 0 0.192132
v 0.1981315 0.3 0.192132
v 0.2859993 0 -0.01999999
v 0.2859993 0.3 -0.01999999
v 0.1981315 0 -0.2321321
v 0.1981315 0.3 -0.2321321
v -0.01400004 0 -0.3200001
v -0.01400004 0.3 -0.3200001
v -0.2261316 0 -0.232132
v -0.2261316 0.3 -0.232132
v -0.3139993 0 -0.01999992
v -0.3139993 0.3 -0.01999992
v -0.2261315 0 0.1921321
v -0.2261315 0.3 0.1921321
v -0.014 0 -0.01999996
v -0.014 0.3 -0.01999996

vt 0 0.1333661
vt 0 0.1541073
vt 0.1107758 0.1541073
vt 0.1107758 0.1333661
vt 0.4284201 0.1541073
vt 0.4284201 0.1333661
vt 0.3068652 0.1333661
vt 0.3068652 0.1541073
vt 0.4111906 0.1541073
vt 0.4111906 0.1333661
vt 0.7257027 0.1541073
vt 0.7257027 0.1333661
vt 0.4879163 0.1333661
vt 0.4879163 0.1541073
vt 0.6050022 0.1541073
vt 0.6050022 0.1333661
vt 0.9151189 0.1541073
vt 0.9151189 0.1333661
vt 0.5118612 0.1333661
vt 0.5118612 0.1541073
vt 0.6405165 0.1541073
vt 0.6405165 0.1333661
vt 0.9446701 0.1541073
vt 0.9446701 0.1333661
vt 0.2804707 0.1333661
vt 0.2804707 0.1541073
vt 0.393364 0.1541073
vt 0.393364 0.1333661
vt 0.7074162 0.1541073
vt 0.7074162 0.1333661
vt -0.0911051 0.1333661
vt -0.0911051 0.1541073
vt 0.01760113 0.1541073
vt 0.01760113 0.1333661
vt 0.3328401 0.1541073
vt 0.3328401 0.1333661
vt -0.4128118 0.1279646
vt -0.4139652 0.1540669
vt -0.2908138 0.1595088
vt -0.2896603 0.1334065
vt -0.2909415 0.1541008
vt 0.02101696 0.1596135
vt 0.02148062 0.1333726
vt -0.2904779 0.1278599
vt -0.9166107 0.1333661
vt -0.9166107 0.1541073
vt -0.784966 0.1541073
vt -0.784966 0.1333661
vt -0.4853507 0.1541073
vt -0.4853507 0.1333661
vt -1.290894 0.1277586
vt -1.292041 0.1540679
vt -1.16251 0.1597148
vt -1.161363 0.1334054
vt -1.162651 0.1541001
vt -0.854998 0.1598102
vt -0.8545073 0.1333733
vt -1.16216 0.1276632
vt -1.696211 0.1276878
vt -1.69749 0.1540586
vt -1.579388 0.1597856
vt -1.578109 0.1334148
vt -1.579499 0.1541001
vt -1.267584 0.1599054
vt -1.26709 0.1333733
vt -1.579005 0.1275679
vt -1.826429 0.1271533
vt -1.827682 0.1540624
vt -1.693225 0.16032
vt -1.691973 0.1334109
vt -1.69337 0.1540982
vt -1.39188 0.1604149
vt -1.391314 0.1333752
vt -1.692804 0.1270584
vt -1.799565 0.1268797
vt -1.800758 0.1540674
vt -1.652002 0.1605937
vt -1.650809 0.133406
vt -1.652181 0.1540969
vt -1.358403 0.1606678
vt -1.357792 0.1333765
vt -1.651571 0.1268056
vt -1.671268 0.1264747
vt -1.672725 0.1540496
vt -1.541177 0.1609987
vt -1.53972 0.1334238
vt -1.541301 0.1540958
vt -1.243462 0.1611073
vt -1.24281 0.1333776
vt -1.540648 0.1263661
vt -1.332179 0.1282064
vt -1.333461 0.1540564
vt -1.228377 0.159267
vt -1.227095 0.133417
vt -1.228121 0.1541073
vt -0.9068675 0.1541073
vt -0.9068675 0.1333661
vt -1.228121 0.1333661
vt -0.8934436 0.1333661
vt -0.8934436 0.1541073
vt -0.7774972 0.1541073
vt -0.7774972 0.1333661
vt -0.4678885 0.1541073
vt -0.4678885 0.1333661
vt -0.4246832 0.1333661
vt -0.4246832 0.1541073
vt -0.3164161 0.1541073
vt -0.3164161 0.1333661
vt 0.08454758 0.45832
vt 1.194448 -0.0009104796
vt -0.006682277 -0.0008616545
vt 0.1395584 0.03170014
vt 0.3445795 0.8504652
vt 1.194663 0.001861185
vt 0.08475929 0.4610239
vt 0.2266793 0.4225742
vt 0.7345311 1.113093
vt 1.195556 0.00393647
vt 0.345566 0.852592
vt 0.4802616 0.7576931
vt 1.195468 1.206263
vt 1.197045 0.005108953
vt 0.736454 1.114403
vt 0.8372464 0.9612901
vt 1.658204 1.114581
vt 1.19938 0.00451225
vt 1.198996 1.205641
vt 1.228297 1.052477
vt 2.050098 0.8527222
vt 1.200954 0.003178477
vt 1.660824 1.112788
vt 1.627492 0.9658527
vt 2.311617 0.461512
vt 1.201881 0.001882977
vt 2.051607 0.8508021
vt 1.965535 0.708002
vt 2.403539 0.0008822381
vt 1.202385 0.0008822381
vt 2.312282 0.4600019
vt 2.145877 0.3602539
vt 2.312282 -0.4577384
vt 1.202385 -0.004911631
vt 2.403539 -0.00491184
vt 2.230884 -0.04816745
vt 2.040529 -0.8770728
vt 1.195198 -0.02913237
vt 2.300397 -0.4995667
vt 2.140601 -0.4666548
vt 1.628867 -1.152988
vt 1.180045 -0.04304653
vt 2.015025 -0.9065156
vt 1.856612 -0.7970605
vt 1.161335 -1.22996
vt 1.170055 -0.03192186
vt 1.614212 -1.14794
vt 1.491825 -0.9686915
vt 0.7424128 -1.113645
vt 1.200928 -0.003448725
vt 1.201596 -1.204556
vt 1.179794 -1.008221
vt 0.349555 -0.854176
vt 1.198741 -0.004674435
vt 0.7388237 -1.114269
vt 0.7641103 -0.9764037
vt 0.08728987 -0.4645183
vt 1.197028 -0.004893869
vt 0.3472995 -0.8538115
vt 0.4443486 -0.7210705
vt -0.005845189 -0.00334249
vt 1.195309 -0.00334249
vt 0.08541161 -0.4625193
vt 0.2105001 -0.3816812
vt -0.01123786 -0.04782727
vt -1.214441 -0.04782727
vt -0.1023393 0.3906667
vt -0.1572726 -0.01351371
vt -0.06744015 0.3230841
vt -1.150764 -0.2004704
vt -0.3246816 0.6459964
vt -0.2079515 0.2791386
vt -0.3041058 0.7276442
vt -1.106643 -0.1688111
vt -0.6819923 0.9436674
vt -0.434965 0.6271602
vt -0.6567185 1.01148
vt -1.066239 -0.1198874
vt -1.093394 1.072658
vt -0.7526057 0.8549449
vt -1.065649 1.158186
vt -1.034288 -0.04460931
vt -1.494534 1.055871
vt -1.093015 1.004459
vt -1.468938 1.173382
vt -1.011712 0.0604375
vt -1.82765 0.927523
vt -1.438223 1.02568
vt -1.943946 0.9384025
vt -1.100621 0.08020607
vt -2.195714 0.5632727
vt -1.860603 0.7937368
vt -2.198929 0.6986858
vt -1.102987 0.2020879
vt -2.28744 0.2826223
vt -2.037533 0.5905173
vt -2.377928 -0.006030247
vt -1.174824 -0.005769715
vt -2.28692 -0.4650552
vt -2.205744 -0.04836282
vt -2.28781 -0.4522896
vt -1.175699 0.00674507
vt -2.028586 -0.841949
vt -2.12841 -0.420432
vt -2.030899 -0.832917
vt -1.178157 0.01574838
vt -1.642716 -1.094154
vt -1.871656 -0.7260518
vt -1.647318 -1.087427
vt -1.183741 0.02270174
vt -1.18889 -1.180492
vt -1.52343 -0.9103636
vt -1.08666 -1.23018
vt -1.134958 -0.02794516
vt -0.7032763 -1.123602
vt -1.068457 -1.033191
vt -0.7507412 -1.101118
vt -1.213611 0.009490251
vt -0.3824466 -0.8489257
vt -0.7746654 -0.9628345
vt -0.3833434 -0.8255638
vt -1.207092 0.05144038
vt -0.1404365 -0.4724222
vt -0.4740089 -0.6881207
vt -0.1223239 -0.4770657
vt -1.223937 0.006821975
vt -0.03311282 -0.0474408
vt -0.2446082 -0.3917135
vt 7.450581E-09 0
vt 7.450581E-09 0.3
vt 0.2296101 0
vt 0.2296101 0.3
vt 0.1623589 0
vt 0.1623589 0.3
vt 0.3919689 0
vt 0.3919689 0.3
vt -0.2296101 0
vt -0.2296101 0.3
vt -0.3919689 0
vt -0.3919689 0.3
vt -0.1623588 0
vt -0.1623588 0.3
vt 0.3 0
vt 0.08786799 0.212132
vt -0.3 0
vt -0.08786799 0.212132
vt 0.3 0.3
vt -0.3 0.3
vt 0.3 1.490116E-08
vt 0.512132 0.212132
vt -0.512132 0.2121321
vt 0.6 -2.235174E-08
vt -0.6 -2.235174E-08
vt 0.512132 -0.212132
vt -0.3 -1.490116E-08
vt -0.512132 -0.212132
vt 0.3 -0.3
vt -0.3 -0.3
vt 0.08786799 -0.212132
vt -0.08786801 -0.2121321

vn 0.4039521 0 0.9147802
vn 0.5742046 0 0.818712
vn 0.7536849 0 0.6572362
vn 0.8686382 0 0.4954473
vn 0.9415491 0 0.3368765
vn 0.9860265 0 0.1665893
vn 0.9997991 0 -0.02004885
vn 0.9810386 0 -0.1938134
vn 0.9243637 0 -0.3815127
vn 0.8142459 0 -0.5805202
vn 0.6784436 0 -0.7346526
vn 0.5170306 0 -0.855967
vn 0.3744703 0 -0.9272391
vn 0.2038803 0 -0.9789959
vn -0.03871386 0 -0.9992504
vn -0.2022296 0 -0.9793382
vn -0.345933 0 -0.9382593
vn -0.5379745 0 -0.8429613
vn -0.7089056 0 -0.7053036
vn -0.8421119 0 -0.5393031
vn -0.9314724 0 -0.3638124
vn -0.9780441 0 -0.2083986
vn -0.9996818 0 -0.0252308
vn -0.9898645 0 0.1420157
vn -0.9242951 0 0.3816789
vn -0.818453 0 0.5745737
vn -0.7262815 0 0.6873976
vn -0.5240617 0 0.8516805
vn -0.3210872 0 0.9470499
vn -0.1581924 0 0.9874084
vn 0.02409766 0 0.9997097
vn 0.2360434 0 0.9717426
vn -0.006468959 -0.998723 0.05010411
vn 0.09331254 -0.9894803 0.04655385
vn 0.193094 -0.9802374 0.04300359
vn 0.01339855 -0.9987301 0.04856509
vn 0.1637634 -0.9721392 -0.0183259
vn 0.3141282 -0.9455483 -0.08521687
vn 0.03004835 -0.998668 0.04194357
vn 0.1170246 -0.9835008 -0.05098977
vn 0.2040009 -0.9683335 -0.1439231
vn 0.04380882 -0.9985919 0.02991682
vn 0.08440609 -0.9861778 -0.08011823
vn 0.1250034 -0.9737638 -0.1901533
vn 0.05043761 -0.9987007 0.007276719
vn 0.04657818 -0.9862231 -0.1081595
vn 0.04271875 -0.9737454 -0.2235957
vn 0.04889156 -0.9987186 -0.01307137
vn -0.003299783 -0.9833347 -0.1290021
vn -0.05549112 -0.9679508 -0.2449328
vn 0.04213416 -0.9986624 -0.02996913
vn -0.02509964 -0.9912537 -0.09167133
vn -0.09233344 -0.9838451 -0.1533735
vn 0.03145428 -0.9985448 -0.04380677
vn -0.106422 -0.9785414 -0.09525747
vn -0.2442983 -0.958538 -0.1467082
vn 0.01009066 -0.9986169 -0.05159923
vn -0.08250939 -0.9911099 -0.04737524
vn -0.1751094 -0.9836029 -0.04315124
vn -0.01189917 -0.9986753 -0.05006106
vn -0.1144673 -0.9869326 -0.003234491
vn -0.2170354 -0.9751899 0.04359208
vn -0.02850696 -0.9985507 -0.04565136
vn -0.1068655 -0.9866483 0.03954854
vn -0.185224 -0.974746 0.1247484
vn -0.04380126 -0.9984195 -0.03521304
vn -0.07923836 -0.9890505 0.06466402
vn -0.1146755 -0.9796815 0.1645411
vn -0.05266592 -0.9985318 -0.0126757
vn -0.0467131 -0.9638177 0.1774454
vn -0.04076028 -0.9291036 0.3675665
vn -0.04786901 -0.9987541 0.01409613
vn -0.005503911 -0.9888047 0.1076511
vn 0.03686119 -0.9788552 0.201206
vn -0.04190065 -0.9986693 0.03006618
vn 0.05977101 -0.9802309 0.1255904
vn 0.1614427 -0.9617924 0.2211145
vn -0.02508652 -0.9987246 0.04381467
vn 0.08659547 -0.9852204 0.08604306
vn 0.1982775 -0.9717163 0.1282714
vn 0.311179 0.9478211 0.06930206
vn 0.1502109 0.9721431 0.07630982
vn -0.01075716 0.996465 0.08331758
vn 0.4802689 0.8673909 -0.1302876
vn 0.2512747 0.9319378 -0.02476412
vn 0.02228059 0.9964846 0.08075937
vn 0.322596 0.9187675 -0.2275922
vn 0.1862791 0.9575403 -0.07892576
vn 0.04996222 0.9963132 0.06974072
vn 0.1993632 0.9318169 -0.3032683
vn 0.1360977 0.9639601 -0.1267657
vn 0.07283232 0.9961033 0.04973682
vn 0.06812855 0.9317721 -0.3565941
vn 0.07599869 0.9640877 -0.1722471
vn 0.08386884 0.9964033 0.0120999
vn -0.08769868 0.9178602 -0.387094
vn -0.003199047 0.9571564 -0.204415
vn 0.08130059 0.9964526 -0.02173607
vn -0.1496832 0.9569613 -0.2486362
vn -0.03981313 0.9766295 -0.1492331
vn 0.07005692 0.9962977 -0.04982999
vn -0.3806142 0.8960406 -0.2285699
vn -0.1641629 0.946007 -0.1506964
vn 0.0522885 0.9959733 -0.07282285
vn -0.283759 0.9563427 -0.06992514
vn -0.1334913 0.9762574 -0.07785641
vn 0.0167765 0.9961722 -0.08578771
vn -0.3469273 0.9352999 0.0696812
vn -0.1833563 0.9658166 -0.006778879
vn -0.01978534 0.9963332 -0.08323895
vn -0.2958682 0.9342133 0.1992673
vn -0.1716288 0.9651014 0.06168863
vn -0.04738947 0.9959894 -0.07589001
vn -0.1846371 0.9464269 0.2649249
vn -0.1287174 0.9710276 0.1032005
vn -0.07279758 0.9956282 -0.05852398
vn -0.060929 0.8333066 0.5494432
vn -0.07423849 0.914622 0.264186
vn -0.08754799 0.9959374 -0.02107116
vn 0.05927009 0.9443617 0.3235246
vn -0.01016757 0.9704562 0.1734831
vn -0.07960523 0.9965508 0.02344159
vn 0.252756 0.9034792 0.3461787
vn 0.09154323 0.9498979 0.1980854
vn -0.06966951 0.9963167 0.04999197
vn 0.3152049 0.9268573 0.2039153
vn 0.1367444 0.9616634 0.1383872
vn -0.04171622 0.9964694 0.07285913
vn 1.192093E-07 0 1
vn 0.7071076 0 0.7071062
vn 1 0 -2.243591E-08
vn 0.7071075 0 -0.7071063
vn -1.192093E-07 0 -1
vn -0.7071077 0 -0.7071061
vn -1 0 2.159827E-07
vn -0.7071074 0 0.7071064
vn 0 -1 0
vn 0 1 0

g Cylinder-Merged_0
usemtl New_Material
f 3/3/2 2/2/1 1/1/1 4/4/2
f 5/5/3 3/3/2 4/4/2 6/6/3
f 7/9/4 5/8/3 6/7/3 8/10/4
f 9/11/5 7/9/4 8/10/4 10/12/5
f 11/15/6 9/14/5 10/13/5 12/16/6
f 13/17/7 11/15/6 12/16/6 14/18/7
f 15/21/8 13/20/7 14/19/7 16/22/8
f 17/23/9 15/21/8 16/22/8 18/24/9
f 19/27/10 17/26/9 18/25/9 20/28/10
f 21/29/11 19/27/10 20/28/10 22/30/11
f 23/33/12 21/32/11 22/31/11 24/34/12
f 25/35/13 23/33/12 24/34/12 26/36/13
f 28/40/14 27/39/14 25/38/13 26/37/13
f 30/43/15 29/42/15 27/41/14 28/44/14
f 30/45/15 32/48/16 31/47/16 29/46/15
f 32/48/16 34/50/17 33/49/17 31/47/16
f 36/54/18 35/53/18 33/52/17 34/51/17
f 38/57/19 37/56/19 35/55/18 36/58/18
f 40/62/20 39/61/20 37/60/19 38/59/19
f 42/65/21 41/64/21 39/63/20 40/66/20
f 44/70/22 43/69/22 41/68/21 42/67/21
f 46/73/23 45/72/23 43/71/22 44/74/22
f 48/78/24 47/77/24 45/76/23 46/75/23
f 50/81/25 49/80/25 47/79/24 48/82/24
f 52/86/26 51/85/26 49/84/25 50/83/25
f 54/89/27 53/88/27 51/87/26 52/90/26
f 56/94/28 55/93/28 53/92/27 54/91/27
f 56/98/28 58/97/29 57/96/29 55/95/28
f 59/101/30 57/100/29 58/99/29 60/102/30
f 61/103/31 59/101/30 60/102/30 62/104/31
f 63/107/32 61/106/31 62/105/31 64/108/32
f 2/2/1 63/107/32 64/108/32 1/1/1
f 4/112/34 1/111/35 65/110/34 6/109/33
f 8/116/37 6/115/38 65/114/37 10/113/36
f 12/120/40 10/119/41 65/118/40 14/117/39
f 16/124/43 14/123/44 65/122/43 18/121/42
f 18/127/47 65/126/46 22/125/45 20/128/46
f 22/131/50 65/130/49 26/129/48 24/132/49
f 26/135/53 65/134/52 30/133/51 28/136/52
f 30/139/56 65/138/55 34/137/54 32/140/55
f 65/142/58 38/141/57 36/144/58 34/143/59
f 65/146/61 42/145/60 40/148/61 38/147/62
f 65/150/64 46/149/63 44/152/64 42/151/65
f 65/154/67 50/153/66 48/156/67 46/155/68
f 50/159/71 65/158/70 54/157/69 52/160/70
f 54/163/74 65/162/73 58/161/72 56/164/73
f 58/167/77 65/166/76 62/165/75 60/168/76
f 62/171/80 65/170/79 1/169/78 64/172/79
f 3/176/82 5/175/83 66/174/82 2/173/81
f 7/180/85 9/179/86 66/178/85 5/177/84
f 11/184/88 13/183/89 66/182/88 9/181/87
f 15/188/91 17/187/92 66/186/91 13/185/90
f 19/192/94 21/191/95 66/190/94 17/189/93
f 25/195/98 66/194/97 21/193/96 23/196/97
f 29/199/101 66/198/100 25/197/99 27/200/100
f 33/203/104 66/202/103 29/201/102 31/204/103
f 33/205/105 35/208/106 37/207/107 66/206/106
f 37/209/108 39/212/109 41/211/110 66/210/109
f 41/213/111 43/216/112 45/215/113 66/214/112
f 45/217/114 47/220/115 49/219/116 66/218/115
f 53/223/119 66/222/118 49/221/117 51/224/118
f 57/227/122 66/226/121 53/225/120 55/228/121
f 61/231/125 66/230/124 57/229/123 59/232/124
f 2/235/128 66/234/127 61/233/126 63/236/127

g Cylinder-Merged_1
usemtl Ground
f 67/237/137 83/251/137 69/252/137
f 69/252/137 83/251/137 71/255/137
f 71/255/137 83/257/137 73/258/137
f 73/258/137 83/251/137 75/260/137
f 75/260/137 83/251/137 77/262/137
f 77/262/137 83/251/137 79/265/137
f 79/265/137 83/251/137 81/267/137
f 81/267/137 83/251/137 67/237/137
f 70/254/138 84/253/138 68/237/138
f 72/256/138 84/253/138 70/254/138
f 74/259/138 84/253/138 72/256/138
f 76/261/138 84/253/138 74/259/138
f 78/264/138 84/263/138 76/261/138
f 80/266/138 84/263/138 78/264/138
f 82/268/138 84/253/138 80/266/138
f 68/237/138 84/253/138 82/268/138
f 70/240/130 68/238/129 67/237/129
f 67/237/129 69/239/130 70/240/130
f 72/244/131 70/242/130 69/241/130
f 69/241/130 71/243/131 72/244/131
f 74/244/132 72/242/131 71/241/131
f 71/241/131 73/243/132 74/244/132
f 76/240/133 74/238/132 73/237/132
f 73/237/132 75/239/133 76/240/133
f 78/238/134 76/246/133 75/245/133
f 75/245/133 77/237/134 78/238/134
f 80/250/135 78/248/134 77/247/134
f 77/247/134 79/249/135 80/250/135
f 82/250/136 80/248/135 79/247/135
f 79/247/135 81/249/136 82/250/136
f 68/238/129 82/246/136 81/245/136
f 81/245/136 67/237/129 68/238/129

